<svg width="401" height="56" viewBox="0 0 401 56" fill="none" xmlns="http://www.w3.org/2000/svg">
<path d="M61.7379 40.9523L71.8179 18.5523H75.9139L86.0259 40.9523H81.674L73.0019 20.7603H74.6659L66.0259 40.9523H61.7379ZM66.3779 35.7683L67.4979 32.5043H79.594L80.7139 35.7683H66.3779ZM88.8747 40.9523V18.5523H98.0907C100.075 18.5523 101.771 18.8723 103.179 19.5123C104.608 20.1523 105.707 21.0696 106.475 22.2643C107.243 23.4589 107.627 24.8776 107.627 26.5203C107.627 28.1629 107.243 29.5816 106.475 30.7763C105.707 31.9709 104.608 32.8883 103.179 33.5283C101.771 34.1683 100.075 34.4883 98.0907 34.4883H91.1787L93.0347 32.5363V40.9523H88.8747ZM93.0347 32.9843L91.1787 30.9683H97.8987C99.7334 30.9683 101.109 30.5843 102.027 29.8163C102.965 29.0269 103.435 27.9283 103.435 26.5203C103.435 25.0909 102.965 23.9923 102.027 23.2243C101.109 22.4563 99.7334 22.0723 97.8987 22.0723H91.1787L93.0347 20.0243V32.9843ZM115.669 40.9523V22.0723H108.245V18.5523H127.253V22.0723H119.829V40.9523H115.669ZM134.215 27.8643H145.351V31.2883H134.215V27.8643ZM134.535 37.4643H147.175V40.9523H130.375V18.5523H146.727V22.0403H134.535V37.4643ZM162.18 41.2723C160.474 41.2723 158.884 40.9949 157.412 40.4403C155.962 39.8643 154.692 39.0643 153.604 38.0403C152.538 36.9949 151.706 35.7683 151.108 34.3603C150.511 32.9523 150.212 31.4163 150.212 29.7523C150.212 28.0883 150.511 26.5523 151.108 25.1443C151.706 23.7363 152.548 22.5203 153.636 21.4963C154.724 20.4509 155.994 19.6509 157.444 19.0963C158.895 18.5203 160.484 18.2323 162.212 18.2323C164.047 18.2323 165.722 18.5523 167.236 19.1923C168.751 19.8109 170.031 20.7389 171.076 21.9763L168.388 24.5043C167.578 23.6296 166.671 22.9789 165.668 22.5523C164.666 22.1043 163.578 21.8803 162.404 21.8803C161.231 21.8803 160.154 22.0723 159.172 22.4563C158.212 22.8403 157.37 23.3843 156.644 24.0883C155.94 24.7923 155.386 25.6243 154.98 26.5843C154.596 27.5443 154.404 28.6003 154.404 29.7523C154.404 30.9043 154.596 31.9603 154.98 32.9203C155.386 33.8803 155.94 34.7123 156.644 35.4163C157.37 36.1203 158.212 36.6643 159.172 37.0483C160.154 37.4323 161.231 37.6243 162.404 37.6243C163.578 37.6243 164.666 37.4109 165.668 36.9843C166.671 36.5363 167.578 35.8643 168.388 34.9683L171.076 37.5283C170.031 38.7443 168.751 39.6723 167.236 40.3123C165.722 40.9523 164.036 41.2723 162.18 41.2723ZM190.806 18.5523H194.966V40.9523H190.806V18.5523ZM179.222 40.9523H175.062V18.5523H179.222V40.9523ZM191.126 31.3523H178.87V27.8003H191.126V31.3523ZM216.756 41.2723C215.007 41.2723 213.332 41.0269 211.732 40.5363C210.132 40.0243 208.863 39.3736 207.924 38.5843L209.364 35.3523C210.26 36.0563 211.37 36.6429 212.692 37.1123C214.015 37.5816 215.37 37.8163 216.756 37.8163C217.93 37.8163 218.879 37.6883 219.604 37.4323C220.33 37.1763 220.863 36.8349 221.204 36.4083C221.546 35.9603 221.716 35.4589 221.716 34.9043C221.716 34.2216 221.471 33.6776 220.98 33.2723C220.49 32.8456 219.85 32.5149 219.06 32.2803C218.292 32.0243 217.428 31.7896 216.468 31.5763C215.53 31.3629 214.58 31.1176 213.62 30.8403C212.682 30.5416 211.818 30.1683 211.028 29.7203C210.26 29.2509 209.631 28.6323 209.14 27.8643C208.65 27.0963 208.404 26.1149 208.404 24.9203C208.404 23.7043 208.724 22.5949 209.364 21.5923C210.026 20.5683 211.018 19.7576 212.34 19.1603C213.684 18.5416 215.38 18.2323 217.428 18.2323C218.772 18.2323 220.106 18.4029 221.428 18.7443C222.751 19.0856 223.903 19.5763 224.884 20.2163L223.572 23.4483C222.57 22.8509 221.535 22.4136 220.468 22.1363C219.402 21.8376 218.378 21.6883 217.396 21.6883C216.244 21.6883 215.306 21.8269 214.58 22.1043C213.876 22.3816 213.354 22.7443 213.012 23.1923C212.692 23.6403 212.532 24.1523 212.532 24.7283C212.532 25.4109 212.767 25.9656 213.236 26.3923C213.727 26.7976 214.356 27.1176 215.124 27.3523C215.914 27.5869 216.788 27.8216 217.748 28.0563C218.708 28.2696 219.658 28.5149 220.596 28.7923C221.556 29.0696 222.42 29.4323 223.188 29.8803C223.978 30.3283 224.607 30.9363 225.076 31.7043C225.567 32.4723 225.812 33.4429 225.812 34.6163C225.812 35.8109 225.482 36.9203 224.82 37.9443C224.18 38.9469 223.188 39.7576 221.844 40.3763C220.5 40.9736 218.804 41.2723 216.756 41.2723ZM240.433 41.2723C238.684 41.2723 237.073 40.9843 235.601 40.4083C234.129 39.8323 232.849 39.0323 231.761 38.0083C230.673 36.9629 229.831 35.7469 229.233 34.3603C228.636 32.9523 228.337 31.4163 228.337 29.7523C228.337 28.0883 228.636 26.5629 229.233 25.1763C229.831 23.7683 230.673 22.5523 231.761 21.5283C232.849 20.4829 234.129 19.6723 235.601 19.0963C237.073 18.5203 238.673 18.2323 240.401 18.2323C242.151 18.2323 243.751 18.5203 245.201 19.0963C246.673 19.6723 247.953 20.4829 249.041 21.5283C250.129 22.5523 250.972 23.7683 251.569 25.1763C252.167 26.5629 252.465 28.0883 252.465 29.7523C252.465 31.4163 252.167 32.9523 251.569 34.3603C250.972 35.7683 250.129 36.9843 249.041 38.0083C247.953 39.0323 246.673 39.8323 245.201 40.4083C243.751 40.9843 242.161 41.2723 240.433 41.2723ZM240.401 37.6243C241.532 37.6243 242.577 37.4323 243.537 37.0483C244.497 36.6643 245.329 36.1203 246.033 35.4163C246.737 34.6909 247.281 33.8589 247.665 32.9203C248.071 31.9603 248.273 30.9043 248.273 29.7523C248.273 28.6003 248.071 27.5549 247.665 26.6163C247.281 25.6563 246.737 24.8243 246.033 24.1203C245.329 23.3949 244.497 22.8403 243.537 22.4563C242.577 22.0723 241.532 21.8803 240.401 21.8803C239.271 21.8803 238.225 22.0723 237.265 22.4563C236.327 22.8403 235.495 23.3949 234.769 24.1203C234.065 24.8243 233.511 25.6563 233.105 26.6163C232.721 27.5549 232.529 28.6003 232.529 29.7523C232.529 30.8829 232.721 31.9283 233.105 32.8883C233.511 33.8483 234.065 34.6909 234.769 35.4163C235.473 36.1203 236.305 36.6643 237.265 37.0483C238.225 37.4323 239.271 37.6243 240.401 37.6243ZM256.875 40.9523V18.5523H261.035V37.4323H272.747V40.9523H256.875ZM285.35 41.2723C282.278 41.2723 279.868 40.4083 278.118 38.6803C276.39 36.9523 275.526 34.4563 275.526 31.1923V18.5523H279.686V31.0323C279.686 33.3363 280.177 35.0109 281.158 36.0563C282.161 37.1016 283.569 37.6243 285.382 37.6243C287.196 37.6243 288.593 37.1016 289.574 36.0563C290.556 35.0109 291.046 33.3363 291.046 31.0323V18.5523H295.142V31.1923C295.142 34.4563 294.268 36.9523 292.518 38.6803C290.79 40.4083 288.401 41.2723 285.35 41.2723ZM305.106 40.9523V22.0723H297.682V18.5523H316.69V22.0723H309.266V40.9523H305.106ZM319.812 40.9523V18.5523H323.972V40.9523H319.812ZM340.527 41.2723C338.778 41.2723 337.167 40.9843 335.695 40.4083C334.223 39.8323 332.943 39.0323 331.855 38.0083C330.767 36.9629 329.924 35.7469 329.327 34.3603C328.73 32.9523 328.431 31.4163 328.431 29.7523C328.431 28.0883 328.73 26.5629 329.327 25.1763C329.924 23.7683 330.767 22.5523 331.855 21.5283C332.943 20.4829 334.223 19.6723 335.695 19.0963C337.167 18.5203 338.767 18.2323 340.495 18.2323C342.244 18.2323 343.844 18.5203 345.295 19.0963C346.767 19.6723 348.047 20.4829 349.135 21.5283C350.223 22.5523 351.066 23.7683 351.663 25.1763C352.26 26.5629 352.559 28.0883 352.559 29.7523C352.559 31.4163 352.26 32.9523 351.663 34.3603C351.066 35.7683 350.223 36.9843 349.135 38.0083C348.047 39.0323 346.767 39.8323 345.295 40.4083C343.844 40.9843 342.255 41.2723 340.527 41.2723ZM340.495 37.6243C341.626 37.6243 342.671 37.4323 343.631 37.0483C344.591 36.6643 345.423 36.1203 346.127 35.4163C346.831 34.6909 347.375 33.8589 347.759 32.9203C348.164 31.9603 348.367 30.9043 348.367 29.7523C348.367 28.6003 348.164 27.5549 347.759 26.6163C347.375 25.6563 346.831 24.8243 346.127 24.1203C345.423 23.3949 344.591 22.8403 343.631 22.4563C342.671 22.0723 341.626 21.8803 340.495 21.8803C339.364 21.8803 338.319 22.0723 337.359 22.4563C336.42 22.8403 335.588 23.3949 334.863 24.1203C334.159 24.8243 333.604 25.6563 333.199 26.6163C332.815 27.5549 332.623 28.6003 332.623 29.7523C332.623 30.8829 332.815 31.9283 333.199 32.8883C333.604 33.8483 334.159 34.6909 334.863 35.4163C335.567 36.1203 336.399 36.6643 337.359 37.0483C338.319 37.4323 339.364 37.6243 340.495 37.6243ZM356.968 40.9523V18.5523H360.392L374.44 35.8003H372.744V18.5523H376.872V40.9523H373.448L359.4 23.7043H361.096V40.9523H356.968ZM389.819 41.2723C388.069 41.2723 386.395 41.0269 384.795 40.5363C383.195 40.0243 381.925 39.3736 380.987 38.5843L382.427 35.3523C383.323 36.0563 384.432 36.6429 385.755 37.1123C387.077 37.5816 388.432 37.8163 389.819 37.8163C390.992 37.8163 391.941 37.6883 392.667 37.4323C393.392 37.1763 393.925 36.8349 394.267 36.4083C394.608 35.9603 394.779 35.4589 394.779 34.9043C394.779 34.2216 394.533 33.6776 394.043 33.2723C393.552 32.8456 392.912 32.5149 392.123 32.2803C391.355 32.0243 390.491 31.7896 389.531 31.5763C388.592 31.3629 387.643 31.1176 386.683 30.8403C385.744 30.5416 384.88 30.1683 384.091 29.7203C383.323 29.2509 382.693 28.6323 382.203 27.8643C381.712 27.0963 381.467 26.1149 381.467 24.9203C381.467 23.7043 381.787 22.5949 382.427 21.5923C383.088 20.5683 384.08 19.7576 385.403 19.1603C386.747 18.5416 388.443 18.2323 390.491 18.2323C391.835 18.2323 393.168 18.4029 394.491 18.7443C395.813 19.0856 396.965 19.5763 397.947 20.2163L396.635 23.4483C395.632 22.8509 394.597 22.4136 393.531 22.1363C392.464 21.8376 391.44 21.6883 390.459 21.6883C389.307 21.6883 388.368 21.8269 387.643 22.1043C386.939 22.3816 386.416 22.7443 386.075 23.1923C385.755 23.6403 385.595 24.1523 385.595 24.7283C385.595 25.4109 385.829 25.9656 386.299 26.3923C386.789 26.7976 387.419 27.1176 388.187 27.3523C388.976 27.5869 389.851 27.8216 390.811 28.0563C391.771 28.2696 392.72 28.5149 393.659 28.7923C394.619 29.0696 395.483 29.4323 396.251 29.8803C397.04 30.3283 397.669 30.9363 398.139 31.7043C398.629 32.4723 398.875 33.4429 398.875 34.6163C398.875 35.8109 398.544 36.9203 397.883 37.9443C397.243 38.9469 396.251 39.7576 394.907 40.3763C393.563 40.9736 391.867 41.2723 389.819 41.2723Z" fill="white"/>
<path d="M5.18506 16.1817C6.4161 7.43136 14.5079 1.33373 23.2587 2.56231L42.1726 5.21778C50.9234 6.44636 57.0193 14.5359 55.7882 23.2863L53.5408 39.2612C52.3098 48.0116 44.2179 54.1092 35.4672 52.8806L16.5532 50.2251C7.8025 48.9966 1.7066 40.907 2.93764 32.1566L5.18506 16.1817Z" fill="url(#paint0_linear_2033_1450)"/>
<path d="M52.2283 35.3273C52.5046 41.949 47.3606 47.5408 40.7389 47.8171L19.7 48.6949C13.0783 48.9711 7.48646 43.8272 7.2102 37.2055L6.49719 20.1155C6.22093 13.4939 11.3649 7.90199 17.9865 7.62573L39.0255 6.74796C45.6472 6.4717 51.239 11.6157 51.5153 18.2373L51.8718 26.7823L52.2283 35.3273Z" fill="black"/>
<path d="M39.3454 35.1121C37.7481 35.2878 36.1295 34.9488 34.664 34.3155C31.8355 33.0704 29.4971 30.8593 27.8157 28.2783C26.7162 26.7451 25.439 25.3136 23.9076 24.2042C22.9521 23.5216 21.8648 22.9823 20.6948 22.8128C19.0042 22.5523 17.2202 23.1533 15.9874 24.3367C14.626 25.631 14.1437 27.7359 14.724 29.5156C15.5617 32.0211 18.2477 33.7007 20.8449 33.488C23.4712 33.3925 25.8831 31.961 27.6105 30.0303C27.7652 29.7468 28.22 29.9887 28.0622 30.2753C26.3548 32.5512 23.776 34.2585 20.9169 34.5528C18.2875 34.9318 15.551 33.6791 13.9859 31.545C12.5143 29.5665 12.3045 26.7698 13.3642 24.5555C14.3121 22.5554 16.2202 21.1039 18.3319 20.5507C19.7806 20.1501 21.3319 20.2241 22.7714 20.6232C26.2292 21.617 29.0316 24.2073 30.9458 27.1981C32.151 28.9023 33.5354 30.5218 35.2581 31.7129C36.4388 32.5173 37.8599 33.0535 39.3025 32.9426C41.3147 32.7469 43.2304 31.4525 44.0574 29.5773C44.7005 28.1134 44.5643 26.3445 43.722 24.99C42.6776 23.2981 40.791 22.1363 38.8094 22.0254C35.935 21.8697 33.1908 23.3459 31.3179 25.4692C31.1495 25.7913 30.6181 25.5047 30.834 25.198C32.3087 23.3274 34.35 21.8497 36.6792 21.295C37.9059 21.0115 39.206 20.8943 40.4387 21.2102C42.6347 21.7511 44.6102 23.2997 45.506 25.4092C46.3881 27.4308 46.1232 29.8777 44.8858 31.6914C43.6332 33.5527 41.5612 34.8363 39.3454 35.1121Z" fill="white"/>
<defs>
<linearGradient id="paint0_linear_2033_1450" x1="1.91306" y1="42.0093" x2="55.9104" y2="11.819" gradientUnits="userSpaceOnUse">
<stop stop-color="#6A8AFF"/>
<stop offset="0.0625" stop-color="#6A8AFF"/>
<stop offset="0.09375" stop-color="#6A8AFF"/>
<stop offset="0.109375" stop-color="#6A8AFF"/>
<stop offset="0.113281" stop-color="#6B8BFF"/>
<stop offset="0.117188" stop-color="#6B8CFF"/>
<stop offset="0.121094" stop-color="#6C8DFF"/>
<stop offset="0.125" stop-color="#6C8DFF"/>
<stop offset="0.128906" stop-color="#6C8EFF"/>
<stop offset="0.132812" stop-color="#6D8EFF"/>
<stop offset="0.136719" stop-color="#6D8FFF"/>
<stop offset="0.140625" stop-color="#6D8FFF"/>
<stop offset="0.144531" stop-color="#6E90FF"/>
<stop offset="0.148438" stop-color="#6E90FF"/>
<stop offset="0.152344" stop-color="#6E91FF"/>
<stop offset="0.15625" stop-color="#6F92FF"/>
<stop offset="0.160156" stop-color="#6F92FF"/>
<stop offset="0.164062" stop-color="#6F93FF"/>
<stop offset="0.167969" stop-color="#7093FF"/>
<stop offset="0.171875" stop-color="#7094FF"/>
<stop offset="0.175781" stop-color="#7194FF"/>
<stop offset="0.179688" stop-color="#7195FF"/>
<stop offset="0.183594" stop-color="#7195FF"/>
<stop offset="0.1875" stop-color="#7296FF"/>
<stop offset="0.191406" stop-color="#7297FF"/>
<stop offset="0.195313" stop-color="#7297FF"/>
<stop offset="0.199219" stop-color="#7398FF"/>
<stop offset="0.203125" stop-color="#7398FF"/>
<stop offset="0.207031" stop-color="#7399FF"/>
<stop offset="0.210938" stop-color="#7499FF"/>
<stop offset="0.214844" stop-color="#749AFF"/>
<stop offset="0.21875" stop-color="#749AFF"/>
<stop offset="0.222656" stop-color="#759BFF"/>
<stop offset="0.226563" stop-color="#759CFF"/>
<stop offset="0.230469" stop-color="#769CFF"/>
<stop offset="0.234375" stop-color="#769DFF"/>
<stop offset="0.238281" stop-color="#769DFF"/>
<stop offset="0.242188" stop-color="#779EFF"/>
<stop offset="0.246094" stop-color="#779EFF"/>
<stop offset="0.25" stop-color="#779FFF"/>
<stop offset="0.253906" stop-color="#789FFF"/>
<stop offset="0.257813" stop-color="#78A0FF"/>
<stop offset="0.261719" stop-color="#78A1FF"/>
<stop offset="0.265625" stop-color="#79A1FF"/>
<stop offset="0.269531" stop-color="#79A2FF"/>
<stop offset="0.273438" stop-color="#79A2FF"/>
<stop offset="0.277344" stop-color="#7AA3FF"/>
<stop offset="0.28125" stop-color="#7AA3FF"/>
<stop offset="0.285156" stop-color="#7AA4FF"/>
<stop offset="0.289062" stop-color="#7BA4FF"/>
<stop offset="0.292969" stop-color="#7BA5FF"/>
<stop offset="0.296875" stop-color="#7CA6FF"/>
<stop offset="0.300781" stop-color="#7CA6FF"/>
<stop offset="0.304688" stop-color="#7CA7FF"/>
<stop offset="0.308594" stop-color="#7DA7FF"/>
<stop offset="0.3125" stop-color="#7DA8FF"/>
<stop offset="0.316406" stop-color="#7DA8FF"/>
<stop offset="0.320312" stop-color="#7EA9FF"/>
<stop offset="0.324219" stop-color="#7EA9FF"/>
<stop offset="0.328125" stop-color="#7EAAFF"/>
<stop offset="0.332031" stop-color="#7FABFF"/>
<stop offset="0.335938" stop-color="#7FABFF"/>
<stop offset="0.339844" stop-color="#7FACFF"/>
<stop offset="0.34375" stop-color="#80ACFF"/>
<stop offset="0.347656" stop-color="#80ADFF"/>
<stop offset="0.351562" stop-color="#81ADFF"/>
<stop offset="0.355469" stop-color="#81AEFF"/>
<stop offset="0.359375" stop-color="#81AEFF"/>
<stop offset="0.363281" stop-color="#82AFFF"/>
<stop offset="0.367187" stop-color="#82B0FF"/>
<stop offset="0.371094" stop-color="#82B0FF"/>
<stop offset="0.375" stop-color="#83B1FF"/>
<stop offset="0.378906" stop-color="#83B1FF"/>
<stop offset="0.382812" stop-color="#83B2FF"/>
<stop offset="0.386719" stop-color="#84B2FF"/>
<stop offset="0.390625" stop-color="#84B3FF"/>
<stop offset="0.394531" stop-color="#84B3FF"/>
<stop offset="0.398438" stop-color="#85B4FF"/>
<stop offset="0.402344" stop-color="#85B5FF"/>
<stop offset="0.40625" stop-color="#85B5FF"/>
<stop offset="0.410156" stop-color="#86B6FF"/>
<stop offset="0.414062" stop-color="#86B6FF"/>
<stop offset="0.417969" stop-color="#87B7FF"/>
<stop offset="0.421875" stop-color="#87B7FF"/>
<stop offset="0.425781" stop-color="#87B8FF"/>
<stop offset="0.429688" stop-color="#88B8FF"/>
<stop offset="0.433594" stop-color="#88B9FF"/>
<stop offset="0.4375" stop-color="#88BAFF"/>
<stop offset="0.441406" stop-color="#89BAFF"/>
<stop offset="0.445312" stop-color="#89BBFF"/>
<stop offset="0.449219" stop-color="#89BBFF"/>
<stop offset="0.453125" stop-color="#8ABCFF"/>
<stop offset="0.457031" stop-color="#8ABCFF"/>
<stop offset="0.460937" stop-color="#8ABDFF"/>
<stop offset="0.464844" stop-color="#8BBDFF"/>
<stop offset="0.46875" stop-color="#8BBEFF"/>
<stop offset="0.472656" stop-color="#8CBFFF"/>
<stop offset="0.476562" stop-color="#8CBFFF"/>
<stop offset="0.480469" stop-color="#8CC0FF"/>
<stop offset="0.484375" stop-color="#8DC0FF"/>
<stop offset="0.488281" stop-color="#8DC1FF"/>
<stop offset="0.492188" stop-color="#8DC1FF"/>
<stop offset="0.496094" stop-color="#8EC2FF"/>
<stop offset="0.5" stop-color="#8EC2FF"/>
<stop offset="0.503906" stop-color="#8EC3FF"/>
<stop offset="0.507812" stop-color="#8FC4FF"/>
<stop offset="0.511719" stop-color="#8FC4FF"/>
<stop offset="0.515625" stop-color="#8FC5FF"/>
<stop offset="0.519531" stop-color="#90C5FF"/>
<stop offset="0.523437" stop-color="#90C6FF"/>
<stop offset="0.527344" stop-color="#90C6FF"/>
<stop offset="0.53125" stop-color="#91C7FF"/>
<stop offset="0.535156" stop-color="#91C8FF"/>
<stop offset="0.539062" stop-color="#92C8FF"/>
<stop offset="0.542969" stop-color="#92C9FF"/>
<stop offset="0.546875" stop-color="#92C9FF"/>
<stop offset="0.550781" stop-color="#93CAFF"/>
<stop offset="0.554688" stop-color="#93CAFF"/>
<stop offset="0.558594" stop-color="#93CBFF"/>
<stop offset="0.5625" stop-color="#94CBFF"/>
<stop offset="0.566406" stop-color="#94CCFF"/>
<stop offset="0.570312" stop-color="#94CDFF"/>
<stop offset="0.574219" stop-color="#95CDFF"/>
<stop offset="0.578125" stop-color="#95CEFF"/>
<stop offset="0.582031" stop-color="#95CEFF"/>
<stop offset="0.585938" stop-color="#96CFFF"/>
<stop offset="0.589844" stop-color="#96CFFF"/>
<stop offset="0.59375" stop-color="#97D0FF"/>
<stop offset="0.597656" stop-color="#97D0FF"/>
<stop offset="0.601562" stop-color="#97D1FF"/>
<stop offset="0.605469" stop-color="#98D2FF"/>
<stop offset="0.609375" stop-color="#98D2FF"/>
<stop offset="0.613281" stop-color="#98D3FF"/>
<stop offset="0.617188" stop-color="#99D3FF"/>
<stop offset="0.621094" stop-color="#99D4FF"/>
<stop offset="0.625" stop-color="#99D4FF"/>
<stop offset="0.628906" stop-color="#9AD5FF"/>
<stop offset="0.632812" stop-color="#9AD5FF"/>
<stop offset="0.636719" stop-color="#9AD6FF"/>
<stop offset="0.640625" stop-color="#9BD7FF"/>
<stop offset="0.644531" stop-color="#9BD7FF"/>
<stop offset="0.648438" stop-color="#9BD8FF"/>
<stop offset="0.652344" stop-color="#9CD8FF"/>
<stop offset="0.65625" stop-color="#9CD9FF"/>
<stop offset="0.660156" stop-color="#9DD9FF"/>
<stop offset="0.664063" stop-color="#9DDAFF"/>
<stop offset="0.667969" stop-color="#9DDAFF"/>
<stop offset="0.671875" stop-color="#9EDBFF"/>
<stop offset="0.675781" stop-color="#9EDCFF"/>
<stop offset="0.679688" stop-color="#9EDCFF"/>
<stop offset="0.683594" stop-color="#9FDDFF"/>
<stop offset="0.6875" stop-color="#9FDDFF"/>
<stop offset="0.691406" stop-color="#9FDEFF"/>
<stop offset="0.695312" stop-color="#A0DEFF"/>
<stop offset="0.699219" stop-color="#A0DFFF"/>
<stop offset="0.703125" stop-color="#A0DFFF"/>
<stop offset="0.707031" stop-color="#A1E0FF"/>
<stop offset="0.710937" stop-color="#A1E1FF"/>
<stop offset="0.714844" stop-color="#A1E1FF"/>
<stop offset="0.71875" stop-color="#A2E2FF"/>
<stop offset="0.722656" stop-color="#A2E2FF"/>
<stop offset="0.726562" stop-color="#A3E3FF"/>
<stop offset="0.730469" stop-color="#A3E3FF"/>
<stop offset="0.734375" stop-color="#A3E4FF"/>
<stop offset="0.738281" stop-color="#A4E4FF"/>
<stop offset="0.742188" stop-color="#A4E5FF"/>
<stop offset="0.746094" stop-color="#A4E6FF"/>
<stop offset="0.75" stop-color="#A5E6FF"/>
<stop offset="0.753906" stop-color="#A5E7FF"/>
<stop offset="0.757812" stop-color="#A5E7FF"/>
<stop offset="0.761719" stop-color="#A6E8FF"/>
<stop offset="0.765625" stop-color="#A6E8FF"/>
<stop offset="0.769531" stop-color="#A6E9FF"/>
<stop offset="0.773438" stop-color="#A7E9FF"/>
<stop offset="0.777344" stop-color="#A7EAFF"/>
<stop offset="0.78125" stop-color="#A8EBFF"/>
<stop offset="0.785156" stop-color="#A8EBFF"/>
<stop offset="0.789062" stop-color="#A8ECFF"/>
<stop offset="0.792969" stop-color="#A9ECFF"/>
<stop offset="0.796875" stop-color="#A9EDFF"/>
<stop offset="0.800781" stop-color="#A9EDFF"/>
<stop offset="0.804688" stop-color="#AAEEFF"/>
<stop offset="0.808594" stop-color="#AAEEFF"/>
<stop offset="0.8125" stop-color="#AAEFFF"/>
<stop offset="0.816406" stop-color="#ABF0FF"/>
<stop offset="0.820313" stop-color="#ABF0FF"/>
<stop offset="0.824219" stop-color="#ABF1FF"/>
<stop offset="0.828125" stop-color="#ACF1FF"/>
<stop offset="0.832031" stop-color="#ACF2FF"/>
<stop offset="0.835938" stop-color="#ACF2FF"/>
<stop offset="0.839844" stop-color="#ADF3FF"/>
<stop offset="0.84375" stop-color="#ADF3FF"/>
<stop offset="0.847656" stop-color="#AEF4FF"/>
<stop offset="0.851563" stop-color="#AEF5FF"/>
<stop offset="0.855469" stop-color="#AEF5FF"/>
<stop offset="0.859375" stop-color="#AFF6FF"/>
<stop offset="0.863281" stop-color="#AFF6FF"/>
<stop offset="0.867188" stop-color="#AFF7FF"/>
<stop offset="0.871094" stop-color="#B0F7FF"/>
<stop offset="0.875" stop-color="#B0F8FF"/>
<stop offset="0.878906" stop-color="#B0F8FF"/>
<stop offset="0.882812" stop-color="#B1F9FF"/>
<stop offset="0.886719" stop-color="#B1FAFF"/>
<stop offset="0.890625" stop-color="#B1FAFF"/>
<stop offset="0.90625" stop-color="#B2FBFF"/>
<stop offset="0.9375" stop-color="#B2FBFF"/>
<stop offset="1" stop-color="#B2FBFF"/>
</linearGradient>
</defs>
</svg>
